# xmcd
#
# Track frame offsets:
#	150
#	13826
#	25276
#	34575
#	47785
#	60019
#	68129
#	80705
#	92909
#	106077
#	116797
#	129987
#
# Disc length: 1871 seconds
#
# Revision: 0
# Processed by: cddbd v1.5PL3 Copyright (c) Steve Scherf et al.
# Submitted via: dBpowerAMP V4.0
#
DISCID=96074d0c
DTITLE=Porter Wagoner and Penny DeHaven - Porter and Penny
DYEAR=2002
DGENRE=Country
TTITLE0=Daddy Was An Ole Time Preacherman
TTITLE1=Someone I Used To Know
TTITLE2=If Tear Drops Were Pennies
TTITLE3=40 Miles From Poplar Bluff
TTITLE4=We're Holding On To Nothin'
TTITLE5=Burning The Midnight Oil
TTITLE6=Each Season Changes You
TTITLE7=Please Don't Stop Lovin' Me
TTITLE8=The Right Combination
TTITLE9=Move In On Home
TTITLE10=Last Thing On My Mind
TTITLE11=Milwaukee Here I Come
EXTD=
EXTT0=
EXTT1=
EXTT2=
EXTT3=
EXTT4=
EXTT5=
EXTT6=
EXTT7=
EXTT8=
EXTT9=
EXTT10=
EXTT11=
PLAYORDER=
